<?xml version="1.0" encoding="utf-8"?>
<!-- Generator: Adobe Illustrator 25.4.1, SVG Export Plug-In . SVG Version: 6.00 Build 0)  -->
<svg version="1.1" id="Layer_1" xmlns="http://www.w3.org/2000/svg" xmlns:xlink="http://www.w3.org/1999/xlink" x="0px" y="0px"
	 viewBox="0 0 566.93 283.46" style="enable-background:new 0 0 566.93 283.46;" xml:space="preserve">
<style type="text/css">
	.st0{fill:#CECAC3;}
	.st1{fill:#FFFFFF;}
</style>
<g>
	<g>
		<path d="M229.21,183.18v-15.95h1.46v14.47h10.43v1.48H229.21z"/>
		<path d="M249.3,183.18v-15.95h1.41v15.95H249.3z"/>
		<path d="M267.56,183.18h-1.41l-7.69-15.95h1.54l6.85,14.11l6.94-14.11h1.61L267.56,183.18z"/>
		<path d="M283.2,183.18v-15.95h1.41v15.95H283.2z"/>
		<path d="M308.01,183.18l-11.24-13.66v13.66h-1.46v-15.95h1.46l11.26,13.62v-13.62h1.46v15.95H308.01z"/>
		<path d="M330.05,183.25c-0.88,0.21-1.8,0.32-2.7,0.32c-4.86,0-8.82-3.34-8.82-8.35c0-4.84,4.02-8.33,9.01-8.33
			c2.89,0,5.07,1.09,6.64,2.89l-0.94,1.05c-1.41-1.5-3.15-2.48-5.69-2.48c-4.35,0-7.54,3.15-7.54,6.89c0,4.28,3.36,6.85,7.45,6.85
			c0.73,0,1.46-0.09,2.14-0.26c1.31-0.32,3.51-1.31,3.51-2.93v-2.78h-5.76v-1.46h7.21v4.22C334.56,181.3,332.1,182.73,330.05,183.25
			z"/>
	</g>
	<g>
		<polygon points="154.51,100.49 146.73,100.49 146.73,144.73 171.15,144.73 171.15,143.79 154.51,143.79 		"/>
		<path d="M259.87,142.43c-2.42,0.77-4.95,1.18-7.31,1.18c-9.91,0-16.52-8.38-16.52-21c0-12.62,6.55-21,16.4-21
			c4.66,0,10.09,1.89,13.51,4.84l0.41-0.53c-3.6-3.66-10.27-6.02-16.58-6.02c-13.22,0-22.12,9.09-22.12,22.71
			c0,13.63,8.91,22.71,22.12,22.71c6.67,0,13.86-2.42,17.87-5.96v-18.11h-7.79V142.43z"/>
		<path d="M315.26,129.98c0,8.38-5.25,13.98-13.16,13.98c-6.84,0-11.44-5.61-11.44-13.98v-29.5h-7.79v28.08
			c0,10.03,7.43,16.75,18.11,16.75c9.67,0,15.46-6.19,15.46-15.52v-29.32h-1.18V129.98z"/>
		<polygon points="365.88,134.53 334.73,99.9 333.84,99.9 333.84,144.73 335.02,144.73 335.02,110.75 366.17,145.32 367.06,145.32 
			367.06,100.49 365.88,100.49 		"/>
		<polygon points="400.32,99.9 399.5,99.9 380.79,144.73 382.03,144.73 396.72,109.4 412.18,144.73 420.2,144.73 		"/>
		<path d="M219.23,144.03c-0.25,0-0.5-0.01-0.74-0.02L198.93,99.9h-0.83l-18.55,44.47c-0.05,0.09-0.1,0.19-0.15,0.28l0.03,0.01
			l-0.03,0.07h0.19l1.34,0.54c3.38-5.6,7.23-9.09,13.84-9.09c9.07,0,13.07,9.96,23.83,9.96c3.43,0,7.02-1.67,10.27-4.01
			c-0.43-0.49-0.84-1-1.23-1.52C224.84,142.64,221.88,144.03,219.23,144.03z M195.55,134.19c-5.79,0-9.92,2.34-12.84,5.57
			l12.62-30.36l13.14,30.04C204.9,136.87,201.17,134.19,195.55,134.19z"/>
	</g>
</g>
</svg>
