<svg width="60" height="60" viewBox="0 0 60 60" fill="none" xmlns="http://www.w3.org/2000/svg">
<path fill-rule="evenodd" clip-rule="evenodd" d="M12.5 6.82833C12.5 2.95667 30 0 30 0C30 0 47.5 2.95667 47.5 6.82833C47.5 11.99 44.3167 14.1667 44.3167 14.1667H15.6833C15.6833 14.1667 12.5 11.99 12.5 6.82833ZM32.5 7.5C32.5 8.16304 32.2366 8.79893 31.7678 9.26777C31.2989 9.73661 30.663 10 30 10C29.337 10 28.7011 9.73661 28.2322 9.26777C27.7634 8.79893 27.5 8.16304 27.5 7.5C27.5 6.83696 27.7634 6.20107 28.2322 5.73223C28.7011 5.26339 29.337 5 30 5C30.663 5 31.2989 5.26339 31.7678 5.73223C32.2366 6.20107 32.5 6.83696 32.5 7.5Z" fill="#204347"/>
<path fill-rule="evenodd" clip-rule="evenodd" d="M43.0234 20.4667C45.3401 18.6584 44.9801 16.6667 44.9801 16.6667H15.0201C15.0201 16.6667 14.6584 18.6584 16.9768 20.4667C16.55 22.4139 16.5652 24.4319 17.0214 26.3724C17.4775 28.3129 18.3629 30.1264 19.6125 31.6795C20.862 33.2326 22.4439 34.4857 24.2417 35.3467C26.0396 36.2078 28.0076 36.6547 30.0009 36.6547C31.9943 36.6547 33.9623 36.2078 35.7601 35.3467C37.5579 34.4857 39.1398 33.2326 40.3894 31.6795C41.6389 30.1264 42.5243 28.3129 42.9805 26.3724C43.4366 24.4319 43.4519 22.4139 43.0251 20.4667H43.0234ZM30.0001 23.3334C34.5351 23.3334 37.7051 22.8101 39.9201 22.0567C40.1003 23.4656 39.9784 24.8967 39.5623 26.2548C39.1463 27.6129 38.4457 28.8667 37.5072 29.9329C36.5688 30.9991 35.4139 31.8531 34.1196 32.4381C32.8253 33.0231 31.4213 33.3257 30.0009 33.3257C28.5806 33.3257 27.1765 33.0231 25.8822 32.4381C24.5879 31.8531 23.4331 30.9991 22.4946 29.9329C21.5562 28.8667 20.8556 27.6129 20.4395 26.2548C20.0235 24.8967 19.9015 23.4656 20.0818 22.0567C22.2951 22.8101 25.4651 23.3334 30.0001 23.3334Z" fill="#204347"/>
<path fill-rule="evenodd" clip-rule="evenodd" d="M32.5 40C32.942 40 33.366 40.1756 33.6785 40.4882C33.9911 40.8007 34.1667 41.2246 34.1667 41.6667V43.97C34.1665 44.2794 34.0802 44.5827 33.9174 44.8459C33.7546 45.109 33.5218 45.3217 33.245 45.46L32.5 45.8333L33.4617 50.6417L40.5283 40.0417C41.0117 40.0417 41.4617 40.045 41.8683 40.0483C50.8767 42.1033 60 46.2933 60 52.5967V60H0V52.5967C0 46.2933 9.52167 42.055 18.53 40C18.4983 40.0067 18.8367 40.0117 19.455 40.0167L26.595 50.725L27.5 45.8333L26.755 45.46C26.4782 45.3217 26.2454 45.109 26.0826 44.8459C25.9198 44.5827 25.8335 44.2794 25.8333 43.97V41.6667C25.8333 41.2246 26.0089 40.8007 26.3215 40.4882C26.634 40.1756 27.058 40 27.5 40H32.5ZM48.3333 48.8883C48.3333 48.8883 46.1117 47.7783 45 46.6667C43.8883 47.7783 41.6667 48.8883 41.6667 48.8883C41.6667 48.8883 42.83 53.3333 45 53.3333C47.17 53.3333 48.3333 48.8883 48.3333 48.8883Z" fill="#204347"/>
</svg>
