<svg width="70" height="70" viewBox="0 0 70 70" fill="none" xmlns="http://www.w3.org/2000/svg">
<path d="M65.1714 38.5781H9.3102V12.3931C9.3075 11.407 9.50042 10.4302 9.8778 9.51915C10.2552 8.6081 10.8095 7.78096 11.5087 7.0856L11.5669 7.02741C12.6627 5.93324 14.0696 5.20404 15.5953 4.93946C17.1211 4.67487 18.6913 4.88779 20.0916 5.54913C18.7692 7.74778 18.2195 10.3253 18.53 12.8721C18.8404 15.419 19.9931 17.789 21.8049 19.6056L23.398 21.1987L20.4657 24.1311L23.7572 27.4226L26.6894 24.4903L42.937 8.24297L45.8693 5.3107L42.5777 2.01911L39.6453 4.95138L38.0522 3.35832C36.1449 1.45632 33.6307 0.283857 30.9477 0.0452462C28.2646 -0.193365 25.583 0.517004 23.3699 2.05256C21.0363 0.578809 18.2708 -0.0574223 15.5277 0.248388C12.7847 0.554199 10.2272 1.78387 8.27546 3.73538L8.21727 3.79357C7.0844 4.92025 6.18624 6.26043 5.57479 7.73655C4.96335 9.21266 4.65075 10.7954 4.6551 12.3931V38.5781H0V43.2332H4.6551V47.6992C4.655 48.0744 4.71552 48.4472 4.83432 48.8032L9.16473 61.7938C9.39582 62.4893 9.84019 63.0943 10.4347 63.5228C11.0292 63.9514 11.7437 64.1817 12.4765 64.1811H14.3531L12.6561 70H17.5051L19.2023 64.1811H49.475L51.2206 70H56.0794L54.3337 64.1811H57.3494C58.0824 64.1819 58.7969 63.9516 59.3916 63.523C59.9862 63.0944 60.4306 62.4894 60.6618 61.7938L64.9919 48.8032C65.1107 48.4472 65.1713 48.0744 65.1714 47.6992V43.2332H69.8265V38.5781H65.1714ZM25.0968 6.64991C26.3793 5.37023 28.117 4.65154 29.9287 4.65154C31.7404 4.65154 33.4782 5.37023 34.7606 6.64991L36.3534 8.24297L26.6899 17.9065L25.0968 16.3138C23.8172 15.0312 23.0986 13.2935 23.0986 11.4818C23.0986 9.67014 23.8172 7.93242 25.0968 6.64991ZM60.5163 47.51L56.5112 59.526H13.3153L9.3102 47.51V43.2332H60.5163V47.51Z" fill="#1E4748"/>
</svg>
