<svg width="51" height="66" viewBox="0 0 51 66" fill="none" xmlns="http://www.w3.org/2000/svg">
<path d="M13.5 40.5L3 63" stroke="#204347" stroke-width="5" stroke-linecap="round" stroke-linejoin="round"/>
<path d="M12 15C12 15 15 11.817 15 9C15 5.001 12 3 12 3" stroke="#204347" stroke-width="5" stroke-linecap="round" stroke-linejoin="round"/>
<path d="M24 15C24 15 27 11.817 27 9C27 5.001 24 3 24 3" stroke="#204347" stroke-width="5" stroke-linecap="round" stroke-linejoin="round"/>
<path d="M36 15C36 15 39 11.817 39 9C39 5.001 36 3 36 3" stroke="#204347" stroke-width="5" stroke-linecap="round" stroke-linejoin="round"/>
<path d="M37.5 49.5H10.5" stroke="#204347" stroke-width="5" stroke-linejoin="round"/>
<path d="M34.5 40.5L40.8 54" stroke="#204347" stroke-width="5" stroke-linecap="round" stroke-linejoin="round"/>
<path d="M43.5 63C44.6935 63 45.8381 62.5259 46.682 61.682C47.5259 60.8381 48 59.6935 48 58.5C48 57.3065 47.5259 56.1619 46.682 55.318C45.8381 54.4741 44.6935 54 43.5 54C42.3065 54 41.1619 54.4741 40.318 55.318C39.4741 56.1619 39 57.3065 39 58.5C39 59.6935 39.4741 60.8381 40.318 61.682C41.1619 62.5259 42.3065 63 43.5 63Z" stroke="#204347" stroke-width="5" stroke-linecap="round" stroke-linejoin="round"/>
<path d="M24 41.9997C29.2583 42.0003 34.3255 40.0281 38.2 36.4731C42.0745 32.918 44.4743 28.0387 44.925 22.7997C44.9405 22.5657 44.907 22.331 44.8268 22.1106C44.7466 21.8902 44.6214 21.689 44.4591 21.5196C44.2968 21.3503 44.1011 21.2166 43.8843 21.1271C43.6675 21.0376 43.4344 20.9942 43.2 20.9997H4.79997C4.5655 20.9942 4.33245 21.0376 4.11567 21.1271C3.89889 21.2166 3.70313 21.3503 3.54085 21.5196C3.37857 21.689 3.25334 21.8902 3.17313 22.1106C3.09292 22.331 3.05949 22.5657 3.07497 22.7997C3.52569 28.0387 5.92546 32.918 9.79994 36.4731C13.6744 40.0281 18.7416 42.0003 24 41.9997V41.9997Z" stroke="#204347" stroke-width="5"/>
</svg>
