<svg width="42" height="40" viewBox="0 0 42 40" fill="none" xmlns="http://www.w3.org/2000/svg">
<path d="M23.4068 22.0002L36.8682 8.53874L34.1966 5.86713C30.4398 2.11043 25.3446 -3.60639e-05 20.0318 4.62201e-10C14.719 3.60648e-05 9.62382 2.11057 5.86712 5.86732C2.11043 9.62407 -3.60639e-05 14.7193 4.62202e-10 20.0321C3.60648e-05 25.3449 2.11057 30.4401 5.86732 34.1968L8.53854 36.8684L21.2307 24.1762L37.0548 40H41.4063L23.4068 22.0002ZM20.032 3.07725C22.2594 3.07118 24.466 3.50695 26.5239 4.35935C28.5818 5.21175 30.4502 6.46385 32.0209 8.04317L32.5168 8.53912L27.0305 14.0254C25.1691 12.1253 23.1462 10.3904 20.9845 8.84047C18.5599 7.12529 16.2308 5.92424 14.062 5.27021C13.5223 5.10646 12.9736 4.9739 12.4186 4.87319C14.7808 3.68676 17.3886 3.0716 20.032 3.07725ZM8.53854 32.517L8.04258 32.0211C5.52454 29.4994 3.86352 26.2494 3.29468 22.7314C2.72584 19.2134 3.278 15.6056 4.873 12.4188C4.97375 12.9738 5.10631 13.5225 5.27001 14.0622C5.92385 16.2311 7.12577 18.5601 8.84027 20.9847C10.3902 23.1464 12.1251 25.1693 14.0252 27.0307L8.53854 32.517ZM16.2019 24.8536C15.0618 23.735 13.1028 21.6828 11.3522 19.2077C9.15296 16.0985 6.8724 11.7174 8.10672 8.10682C11.7049 6.87673 16.0682 9.13912 19.1648 11.3219C21.6517 13.075 23.7254 15.0541 24.853 16.2025L16.2019 24.8536Z" fill="#ECD259"/>
</svg>
