<svg width="80" height="70" viewBox="0 0 80 70" fill="none" xmlns="http://www.w3.org/2000/svg">
<path d="M57.4962 1.48395e-07C60.6696 -0.00048855 63.7244 1.20608 66.0409 3.37498C68.3574 5.54387 69.7622 8.51268 69.9704 11.6792L69.9954 12.4992V25.2483C72.6744 25.7962 75.0999 27.2072 76.9005 29.2652C78.7011 31.3231 79.7775 33.9146 79.9647 36.6426L79.9947 37.4975V67.4956C79.9959 68.1202 79.7631 68.7227 79.3422 69.1844C78.9214 69.646 78.3429 69.9333 77.7208 69.9898C77.0986 70.0462 76.4779 69.8677 75.9808 69.4893C75.4838 69.111 75.1464 68.5602 75.0351 67.9455L74.9951 67.4956V54.9964H4.99967V67.4956C5.00082 68.1202 4.76804 68.7227 4.34717 69.1844C3.9263 69.646 3.34785 69.9333 2.72571 69.9898C2.10358 70.0462 1.48285 69.8677 0.985777 69.4893C0.488699 69.111 0.151291 68.5602 0.0399971 67.9455L2.60554e-07 67.4956V37.4975C-0.000587838 34.6161 0.994393 31.8229 2.81655 29.5908C4.63871 27.3587 7.17612 25.8246 9.99934 25.2483V12.4992C9.99885 9.3258 11.2054 6.27103 13.3743 3.95451C15.5432 1.638 18.512 0.233173 21.6786 0.0249991L22.4985 1.48395e-07H57.4962ZM67.4956 29.998H12.4992C10.6357 29.998 8.8389 30.6918 7.45897 31.9441C6.07904 33.1965 5.21481 34.9178 5.03467 36.7726L4.99967 37.4975V49.9967H74.9951V37.4975C74.9951 35.634 74.3013 33.8373 73.049 32.4573C71.7966 31.0774 70.0753 30.2132 68.2205 30.033L67.4956 29.998ZM57.4962 4.99967H22.4985C20.6342 4.99976 18.8368 5.69422 17.4568 6.94764C16.0767 8.20105 15.213 9.92354 15.034 11.7792L14.999 12.4992V24.9984H19.9987V22.4985C19.9987 21.8355 20.2621 21.1997 20.7309 20.7309C21.1997 20.2621 21.8355 19.9987 22.4985 19.9987H34.9977C35.6607 19.9987 36.2965 20.2621 36.7654 20.7309C37.2342 21.1997 37.4975 21.8355 37.4975 22.4985V24.9984H42.4972V22.4985C42.4972 21.8355 42.7606 21.1997 43.2294 20.7309C43.6982 20.2621 44.334 19.9987 44.997 19.9987H57.4962C58.1592 19.9987 58.7951 20.2621 59.2639 20.7309C59.7327 21.1997 59.9961 21.8355 59.9961 22.4985V24.9984H64.9957V12.4992C64.9958 10.6357 64.302 8.8389 63.0496 7.45897C61.7972 6.07904 60.076 5.21481 58.2212 5.03467L57.4962 4.99967Z" fill="#204347"/>
</svg>
