<svg width="56" height="69" viewBox="0 0 56 69" fill="none" xmlns="http://www.w3.org/2000/svg">
<path d="M49 0H7C3.1395 0 0 3.0847 0 6.87781V65.3392C0 66.2512 0.36875 67.1259 1.02513 67.7708C1.6815 68.4158 2.57174 68.7781 3.5 68.7781H52.5C53.4283 68.7781 54.3185 68.4158 54.9749 67.7708C55.6313 67.1259 56 66.2512 56 65.3392V6.87781C56 3.0847 52.8605 0 49 0ZM49 61.9003H7V6.87781H49V61.9003Z" fill="#204347"/>
<path d="M14 13.7556H24.5V20.6334H14V13.7556ZM31.5 13.7556H42V20.6334H31.5V13.7556ZM14 27.5112H24.5V34.389H14V27.5112ZM31.5 27.6178H42V34.389H31.5V27.6178ZM14 41.2667H24.5V48.1445H14V41.2667ZM31.5 41.2667H42V48.1445H31.5V41.2667Z" fill="#204347"/>
</svg>
