<svg width="48" height="48" viewBox="0 0 48 48" fill="none" xmlns="http://www.w3.org/2000/svg">
<path d="M31 17L28 20M44 4.00001C44 4.00001 33.59 2.20101 30 8.00001C27.328 12.317 31 17 31 17L44 4.00001ZM44 4.00001C44 4.00001 45.799 14.41 40 18C35.683 20.672 31 17 31 17L44 4.00001ZM44 4.00001L31 17L44 4.00001Z" stroke="white" stroke-width="4" stroke-linecap="round" stroke-linejoin="round"/>
<path d="M31 31L28 28M44 44C44 44 33.59 45.799 30 40C27.328 35.683 31 31 31 31L44 44ZM44 44C44 44 45.799 33.59 40 30C35.683 27.328 31 31 31 31L44 44ZM44 44L31 31L44 44Z" stroke="white" stroke-width="4" stroke-linecap="round" stroke-linejoin="round"/>
<path d="M17.264 17L20.264 20M4.264 4.00001C4.264 4.00001 14.674 2.20101 18.264 8.00001C20.936 12.317 17.264 17 17.264 17L4.264 4.00001ZM4.264 4.00001C4.264 4.00001 2.464 14.41 8.264 18C12.58 20.672 17.264 17 17.264 17L4.264 4.00001ZM4.264 4.00001L17.264 17L4.264 4.00001Z" stroke="white" stroke-width="4" stroke-linecap="round" stroke-linejoin="round"/>
<path d="M17.264 31L20.264 28M4.264 44C4.264 44 14.674 45.799 18.264 40C20.936 35.683 17.264 31 17.264 31L4.264 44ZM4.264 44C4.264 44 2.464 33.59 8.264 30C12.58 27.328 17.264 31 17.264 31L4.264 44ZM4.264 44L17.264 31L4.264 44Z" stroke="white" stroke-width="4" stroke-linecap="round" stroke-linejoin="round"/>
</svg>
