<svg width="66" height="66" viewBox="0 0 66 66" fill="none" xmlns="http://www.w3.org/2000/svg">
<path d="M33 21L44.412 29.292L33 21ZM33 21L21.588 29.292L33 21ZM33 21V12V21ZM44.412 29.292L40.053 42.708L44.412 29.292ZM44.412 29.292L52.5 25.5L44.412 29.292ZM40.053 42.708H25.95H40.053ZM40.056 42.708L45 49.5L40.056 42.708ZM25.947 42.708L21.588 29.292L25.947 42.708ZM25.947 42.708L21 49.5L25.947 42.708ZM21.588 29.292L13.5 25.5L21.588 29.292ZM13.5 25.5L3.15 36L13.5 25.5ZM13.5 25.5L10.5 13.155L13.5 25.5ZM52.5 25.5L62.85 36L52.5 25.5ZM52.5 25.5L55.5 13.155L52.5 25.5ZM33 12L22.872 4.752L33 12ZM33 12L43.128 4.752L33 12ZM21 49.5L7.014 48L21 49.5ZM21 49.5L28.5 62.664L21 49.5ZM45 49.5L58.986 48L45 49.5ZM45 49.5L37.5 62.664L45 49.5ZM63 33C63 49.569 49.569 63 33 63C16.431 63 3 49.569 3 33C3 16.431 16.431 3 33 3C49.569 3 63 16.431 63 33Z" stroke="#1E4748" stroke-width="5" stroke-linecap="round" stroke-linejoin="round"/>
</svg>
