<svg width="28" height="40" viewBox="0 0 28 40" fill="none" xmlns="http://www.w3.org/2000/svg">
<path d="M14 28.0004C21.74 28.0004 28 21.7403 28 14.0002C28 6.26009 21.74 0 14 0C6.26 0 0 6.26009 0 14.0002C0 21.7403 6.26 28.0004 14 28.0004ZM14 4.00005C19.52 4.00005 24 8.48012 24 14.0002C24 19.5203 19.52 24.0003 14 24.0003C8.48 24.0003 4 19.5203 4 14.0002C4 8.48012 8.48 4.00005 14 4.00005Z" fill="#ECD259"/>
<path d="M10 14.0037C11.1046 14.0037 12 13.1075 12 12.0019C12 10.8963 11.1046 10 10 10C8.89543 10 8 10.8963 8 12.0019C8 13.1075 8.89543 14.0037 10 14.0037Z" fill="#ECD259"/>
<path d="M18 14.0037C19.1046 14.0037 20 13.1075 20 12.0019C20 10.8963 19.1046 10 18 10C16.8954 10 16 10.8963 16 12.0019C16 13.1075 16.8954 14.0037 18 14.0037Z" fill="#ECD259"/>
<path d="M14 10.0029C15.1046 10.0029 16 9.10696 16 8.00171C16 6.89647 15.1046 6.00049 14 6.00049C12.8954 6.00049 12 6.89647 12 8.00171C12 9.10696 12.8954 10.0029 14 10.0029Z" fill="#ECD259"/>
<path d="M4 34.0003H8C10.2 34.0003 12 35.8002 12 38.0001V40H16V38.0001C16 35.8002 17.8 34.0003 20 34.0003H24V30.0005H4V34.0003Z" fill="#ECD259"/>
</svg>
