<svg width="60" height="60" viewBox="0 0 60 60" fill="none" xmlns="http://www.w3.org/2000/svg">
<path fill-rule="evenodd" clip-rule="evenodd" d="M0 0H3.75V56.25H60V60H0V0ZM37.5 13.125C37.5 12.6277 37.6975 12.1508 38.0492 11.7992C38.4008 11.4475 38.8777 11.25 39.375 11.25H54.375C54.8723 11.25 55.3492 11.4475 55.7008 11.7992C56.0525 12.1508 56.25 12.6277 56.25 13.125V28.125C56.25 28.6223 56.0525 29.0992 55.7008 29.4508C55.3492 29.8025 54.8723 30 54.375 30C53.8777 30 53.4008 29.8025 53.0492 29.4508C52.6975 29.0992 52.5 28.6223 52.5 28.125V18.375L38.9513 34.9388C38.7854 35.1412 38.579 35.3067 38.3453 35.4245C38.1116 35.5424 37.8559 35.6101 37.5945 35.6231C37.3331 35.6362 37.0719 35.5944 36.8276 35.5004C36.5834 35.4065 36.3615 35.2624 36.1763 35.0775L26.475 25.3763L12.765 44.2275C12.4651 44.6089 12.029 44.8591 11.5484 44.9257C11.0679 44.9923 10.5802 44.87 10.1879 44.5845C9.7956 44.299 9.52925 43.8726 9.44479 43.3948C9.36033 42.9171 9.46436 42.4252 9.735 42.0225L24.735 21.3975C24.8942 21.1782 25.0991 20.996 25.3355 20.8635C25.5719 20.7309 25.8342 20.6512 26.1044 20.6298C26.3746 20.6085 26.6462 20.6459 26.9005 20.7396C27.1548 20.8333 27.3858 20.981 27.5775 21.1725L37.3613 30.96L50.4187 15H39.375C38.8777 15 38.4008 14.8025 38.0492 14.4508C37.6975 14.0992 37.5 13.6223 37.5 13.125Z" fill="white"/>
</svg>
