<svg width="77" height="60" viewBox="0 0 77 60" fill="none" xmlns="http://www.w3.org/2000/svg">
<path d="M68.3893 22.197L55.7859 4.19993L61.7874 0L74.3871 17.9971L68.3893 22.197Z" fill="#1E4748"/>
<path d="M61.4904 31.499L55.1923 22.495L25.196 43.4983L31.494 52.495L25.4962 56.6986L8.69653 32.7L14.6943 28.5001L20.9924 37.5005L50.9887 16.4972L44.6907 7.4968L50.6885 3.29688L67.4882 27.2917L61.4904 31.4953V31.499Z" fill="#1E4748"/>
<path d="M70.1867 11.9966L76.1845 7.79663L71.9846 1.79883L65.9868 5.99876L70.1867 11.9966Z" fill="#1E4748"/>
<path d="M20.3991 55.8008L7.79565 37.8037L1.79785 42.0036L14.3976 60.0007L20.3991 55.8008Z" fill="#1E4748"/>
<path d="M10.1977 54.0037L4.19993 58.2036L0 52.2058L5.9978 48.0059L10.1977 54.0037Z" fill="#1E4748"/>
</svg>
