<svg width="60" height="60" viewBox="0 0 60 60" fill="none" xmlns="http://www.w3.org/2000/svg">
<path d="M30 30C30 25.9149 31.4681 22.4043 34.4043 19.4681C37.3404 16.5319 40.8511 15.0638 44.9362 15.0638C49.0213 15.0638 52.5319 16.5319 55.4681 19.4681C58.4043 22.4043 59.8723 25.9149 59.8723 30H30ZM30 30C30 34.0851 28.5106 37.5957 25.5319 40.5319C22.5532 43.4681 19.0213 44.9362 14.9362 44.9362C10.8511 44.9362 7.34043 43.4681 4.40426 40.5319C1.46809 37.5957 0 34.0851 0 30H30ZM30 30C25.9149 30 22.383 28.5319 19.4043 25.5957C16.4255 22.6596 14.9362 19.1489 14.9362 15.0638C14.9362 10.9787 16.4255 7.44681 19.4043 4.46809C22.383 1.48936 25.9149 0 30 0V30ZM30 30C34.0851 30 37.5957 31.4681 40.5319 34.4043C43.4681 37.3404 44.9362 40.8511 44.9362 44.9362C44.9362 49.0213 43.4681 52.5532 40.5319 55.5319C37.5957 58.5106 34.0851 60 30 60V30Z" fill="#204347"/>
</svg>
