<svg width="25" height="20" viewBox="0 0 25 20" fill="none" xmlns="http://www.w3.org/2000/svg">
<path d="M19.3949 19.0874C19.2732 19.0874 19.1515 19.083 19.0346 19.0787L9.50999 0H9.10584L0.0730459 19.2344C0.0486987 19.2734 0.0243471 19.3166 0 19.3555L0.0146077 19.3599L0 19.3901H0.0925203L0.745022 19.6237C2.39089 17.2016 4.26562 15.692 7.48432 15.692C11.9009 15.692 13.8487 20 19.0882 20C20.7584 20 22.5065 19.2777 24.0891 18.2656C23.8797 18.0536 23.68 17.833 23.4901 17.6081C22.1267 18.4862 20.6853 19.0874 19.3949 19.0874ZM7.86413 14.8313C5.04473 14.8313 3.03366 15.8434 1.61179 17.2405L7.757 4.109L14.1554 17.1021C12.417 15.9905 10.6007 14.8313 7.86413 14.8313Z" fill="#1E4748"/>
</svg>
