<svg width="231" height="192" viewBox="0 0 231 192" fill="none" xmlns="http://www.w3.org/2000/svg">
<path d="M185.842 182.895C184.676 182.895 183.509 182.854 182.39 182.812L91.1248 0H87.2521L0.699926 184.304C0.466631 184.677 0.233294 185.092 0 185.465L0.139971 185.506L0 185.796H0.88653L7.1388 188.034C22.9095 164.825 40.8732 150.361 71.7147 150.361C114.034 150.361 132.698 191.64 182.903 191.64C198.907 191.64 215.657 184.719 230.821 175.021C228.815 172.99 226.902 170.876 225.082 168.721C212.018 177.134 198.207 182.895 185.842 182.895ZM75.3541 142.114C48.3386 142.114 29.0685 151.812 15.4441 165.198L74.3276 39.3724L135.637 163.872C118.98 153.221 101.576 142.114 75.3541 142.114Z" fill="#ECD259"/>
</svg>
