<?xml version="1.0" standalone="no"?>
<!DOCTYPE svg PUBLIC "-//W3C//DTD SVG 20010904//EN"
 "http://www.w3.org/TR/2001/REC-SVG-20010904/DTD/svg10.dtd">
<svg version="1.0" xmlns="http://www.w3.org/2000/svg"
 width="614.000000pt" height="589.000000pt" viewBox="0 0 614.000000 589.000000"
 preserveAspectRatio="xMidYMid meet">

<g transform="translate(0.000000,589.000000) scale(0.100000,-0.100000)"
fill="#ECD259" stroke="none">
<path d="M1302 2967 c-607 -1453 -1105 -2652 -1108 -2664 -5 -18 4 -24 85 -51
l90 -30 67 104 c175 275 419 549 607 681 255 179 542 273 881 290 353 16 668
-81 1044 -324 48 -30 202 -137 342 -237 319 -226 467 -320 645 -406 155 -76
269 -118 414 -154 175 -44 238 -51 451 -51 178 0 219 3 308 23 269 60 532 179
820 369 l112 75 -21 26 c-12 15 -44 55 -71 90 -28 34 -53 62 -57 62 -4 0 -58
-34 -121 -75 -224 -148 -504 -270 -694 -305 -38 -7 -114 -13 -170 -14 l-100
-1 -1160 2617 -1161 2618 -50 0 -51 0 -1102 -2643z m1553 -272 c425 -971 770
-1765 768 -1765 -3 0 -42 26 -86 58 -407 292 -692 433 -1019 506 -431 95 -915
41 -1315 -149 -191 -91 -345 -199 -512 -360 -57 -55 -101 -91 -97 -80 27 78
1481 3564 1484 3560 3 -3 352 -799 777 -1770z"/>
</g>
</svg>
