<svg width="35" height="40" viewBox="0 0 35 40" fill="none" xmlns="http://www.w3.org/2000/svg">
<path d="M30.4762 9.52381H26.6667C26.6667 4.26667 22.4 0 17.1429 0C11.8857 0 7.61905 4.26667 7.61905 9.52381H3.80952C1.71429 9.52381 0 11.2381 0 13.3333V36.1905C0 38.2857 1.71429 40 3.80952 40H30.4762C32.5714 40 34.2857 38.2857 34.2857 36.1905V13.3333C34.2857 11.2381 32.5714 9.52381 30.4762 9.52381ZM17.1429 3.80952C20.3048 3.80952 22.8571 6.3619 22.8571 9.52381H11.4286C11.4286 6.3619 13.9809 3.80952 17.1429 3.80952ZM30.4762 36.1905H3.80952V13.3333H30.4762V36.1905ZM17.1429 20.9524C13.9809 20.9524 11.4286 18.4 11.4286 15.2381H7.61905C7.61905 20.4952 11.8857 24.7619 17.1429 24.7619C22.4 24.7619 26.6667 20.4952 26.6667 15.2381H22.8571C22.8571 18.4 20.3048 20.9524 17.1429 20.9524Z" fill="#ECD259"/>
</svg>
