<svg width="74" height="80" viewBox="0 0 74 80" fill="none" xmlns="http://www.w3.org/2000/svg">
<path d="M36.662 0.775146L35.1867 1.26788L3.12012 11.9888V57.0054L36.662 68.2191L70.2038 57.0054V11.9888L36.662 0.775146ZM6.06926 14.123L35.1867 4.389V44.1517L6.06926 53.8858V14.123ZM36.662 65.0995L9.26037 55.9391L36.662 46.7772L64.0636 55.9391L36.662 65.0995ZM67.2547 53.8858L38.1373 44.1517V4.38753L67.2547 14.123V53.8858Z" fill="#204347"/>
<path d="M36.6618 68.9942L2.38672 57.5349V11.4593L36.6618 0L70.937 11.4593V57.5349L36.6618 68.9942ZM3.85322 56.4744L36.6618 67.444L69.4704 56.4744V12.5198L36.6618 1.55027L35.4182 1.96504L3.85322 12.5198V56.4744ZM36.6618 65.8746L6.94021 55.939L36.6618 46.002L66.3835 55.939L36.6618 65.8746ZM11.5846 55.939L36.6618 64.3228L61.739 55.939L36.6618 47.5479L11.5846 55.939ZM67.9937 54.9095L37.4039 44.6812V3.36676L67.9878 13.592L67.9937 54.9095ZM38.8704 43.6222L66.5213 52.865V14.6525L38.8704 5.40828V43.6222ZM5.33586 54.9021V13.592L35.9198 3.36823V44.6812L5.33586 54.9021ZM6.80236 14.6496V52.862L34.4533 43.6193V5.40975L6.80236 14.6496Z" fill="#204347"/>
<path d="M73.2311 61.1807V68.148H70.4536V66.8213L40.9153 77.2511V80.0001H38.1377V73.0327H40.9153V74.152L70.4536 63.7223V61.1807H73.2311Z" fill="#204347"/>
<path d="M0 61.1807V68.148H2.78489V66.8213L32.4024 77.2511V80.0001H35.1873V73.0327H32.4024V74.152L2.78489 63.7223V61.1807H0Z" fill="#204347"/>
</svg>
