<svg width="64" height="60" viewBox="0 0 64 60" fill="none" xmlns="http://www.w3.org/2000/svg">
<path d="M7.8929 28.4145C12.252 28.4145 15.7858 24.8807 15.7858 20.5216C15.7858 16.1624 12.252 12.6287 7.8929 12.6287C3.53377 12.6287 0 16.1624 0 20.5216C0 24.8807 3.53377 28.4145 7.8929 28.4145Z" fill="#204347"/>
<path d="M22.1001 15.7858C26.4592 15.7858 29.993 12.252 29.993 7.8929C29.993 3.53377 26.4592 0 22.1001 0C17.741 0 14.2072 3.53377 14.2072 7.8929C14.2072 12.252 17.741 15.7858 22.1001 15.7858Z" fill="#204347"/>
<path d="M41.0431 15.7858C45.4022 15.7858 48.936 12.252 48.936 7.8929C48.936 3.53377 45.4022 0 41.0431 0C36.6839 0 33.1502 3.53377 33.1502 7.8929C33.1502 12.252 36.6839 15.7858 41.0431 15.7858Z" fill="#204347"/>
<path d="M55.2503 28.4145C59.6094 28.4145 63.1432 24.8807 63.1432 20.5216C63.1432 16.1624 59.6094 12.6287 55.2503 12.6287C50.8912 12.6287 47.3574 16.1624 47.3574 20.5216C47.3574 24.8807 50.8912 28.4145 55.2503 28.4145Z" fill="#204347"/>
<path d="M48.4309 37.4439C45.6842 34.2236 43.3794 31.4769 40.6011 28.2566C39.1488 26.5517 37.2861 24.8469 35.0761 24.0891C34.7288 23.9629 34.3815 23.8681 34.0342 23.805C33.245 23.6787 32.3925 23.6787 31.5717 23.6787C30.7508 23.6787 29.8984 23.6787 29.0775 23.8366C28.7302 23.8997 28.3829 23.9944 28.0356 24.1207C25.8256 24.8784 23.9945 26.5833 22.5106 28.2882C19.7639 31.5085 17.4592 34.2552 14.6809 37.4755C10.545 41.6114 5.46194 46.1893 6.40909 52.5983C7.32467 55.8186 9.6294 59.0073 13.7653 59.9229C16.07 60.3965 23.4262 58.5338 31.2559 58.5338H31.8242C39.654 58.5338 47.0102 60.3649 49.3149 59.9229C53.4508 59.0073 55.7555 55.787 56.6711 52.5983C57.6498 46.1577 52.5668 41.5798 48.4309 37.4439Z" fill="#204347"/>
</svg>
