<svg width="40" height="40" viewBox="0 0 40 40" fill="none" xmlns="http://www.w3.org/2000/svg">
<path d="M38.2502 6.33421L32.9259 1.01487C32.276 0.364955 31.4061 0 30.4862 0C29.5663 0 28.6964 0.359955 28.0465 1.01487L22.3122 6.73916C21.6623 7.38908 21.2973 8.26397 21.2973 9.18385C21.2973 10.1087 21.6573 10.9736 22.3122 11.6285L26.7917 16.113C25.7712 18.4906 24.305 20.6509 22.4722 22.4772C20.6374 24.322 18.4927 25.7768 16.113 26.8067L11.6335 22.3222C10.9836 21.6723 10.1137 21.3073 9.19385 21.3073C8.74012 21.3057 8.29062 21.3946 7.87169 21.5688C7.45276 21.7431 7.07283 21.9992 6.75416 22.3222L1.01487 28.0465C0.364955 28.6964 0 29.5713 0 30.4912C0 31.4161 0.359955 32.281 1.01487 32.9359L6.33421 38.2552C7.44407 39.3651 8.97388 40 10.5437 40C10.8686 40 11.1836 39.975 11.5036 39.92C18.1227 38.8301 24.6919 35.3056 29.9963 30.0063C35.2956 24.6969 38.8151 18.1277 39.915 11.5036C40.23 9.6238 39.6 7.68904 38.2502 6.33421ZM36.3705 10.9086C35.3956 16.8029 32.226 22.6822 27.4516 27.4566C22.6772 32.231 16.8029 35.4006 10.9086 36.3755C10.1687 36.5004 9.40882 36.2505 8.86889 35.7155L3.64454 30.4912L9.18385 24.9469L15.1731 30.9461L15.2181 30.9911L16.298 30.5912C19.5722 29.3874 22.5455 27.486 25.0118 25.0188C27.4782 22.5516 29.3785 19.5776 30.5812 16.303L30.9811 15.2231L24.9419 9.18885L30.4812 3.64454L35.7055 8.86889C36.2455 9.40882 36.4954 10.1687 36.3705 10.9086Z" fill="white"/>
</svg>
