<svg width="47" height="60" viewBox="0 0 47 60" fill="none" xmlns="http://www.w3.org/2000/svg">
<path d="M16.1577 42.7589C24.9682 46.4692 36.5456 41.5188 42.7593 31.0749C49.3397 20.0175 47.4163 6.9867 38.4591 1.96972C29.5085 -3.04726 16.9144 1.84972 10.334 12.9104C4.8803 22.0743 5.26699 32.595 10.6607 38.7853L0 56.6998L5.89703 60L16.1577 42.7589ZM36.9456 27.818C35.7503 29.8605 34.2354 31.6984 32.4587 33.2617V6.80002C33.4187 6.97003 34.2921 7.27339 35.0522 7.70008C39.6358 10.2669 42.4026 18.6474 36.9456 27.818ZM22.2481 37.3353V9.46686C24.5082 7.90009 26.8683 7.0267 29.0551 6.74335V35.6018C26.7217 36.8352 24.3548 37.3753 22.2481 37.3353ZM18.8445 36.6685C18.5703 36.5559 18.3031 36.4268 18.0445 36.2819C13.4575 33.715 10.694 25.3345 16.151 16.1639C16.9777 14.7705 17.8844 13.5471 18.8445 12.4837V36.6685Z" fill="#1E4748"/>
</svg>
