<svg width="67" height="60" viewBox="0 0 67 60" fill="none" xmlns="http://www.w3.org/2000/svg">
<path d="M66.6667 60C62.9667 60 60.9 58.7667 59.4 57.8667C58.1667 57.1334 57.4 56.6667 55.5667 56.6667C53.7 56.6667 52.9667 57.1 51.7334 57.8667C50.2 58.7667 48.1667 60 44.4667 60C40.7667 60 38.7 58.7667 37.2 57.8667C35.9667 57.1334 35.2 56.6667 33.3667 56.6667C31.5 56.6667 30.7667 57.1 29.5333 57.8667C28 58.7667 25.9333 60 22.2333 60C18.5333 60 16.4667 58.7667 14.9667 57.8667C13.7333 57.1 12.9667 56.6667 11.1333 56.6667C9.3 56.6667 8.53334 57.1 7.3 57.8667C5.76667 58.7667 3.7 60 0 60V53.3334C1.86667 53.3334 2.6 52.9001 3.83333 52.1334C5.36667 51.2334 7.43334 50.0001 11.1333 50.0001C14.8333 50.0001 16.9 51.2334 18.4 52.1334C19.6333 52.9001 20.3667 53.3334 22.2333 53.3334C24.1 53.3334 24.8333 52.9001 26.0667 52.1334C27.6 51.2334 29.6667 50.0001 33.3667 50.0001C37.0667 50.0001 39.1333 51.2334 40.6333 52.1334C41.8667 52.8667 42.6333 53.3334 44.4667 53.3334C46.3 53.3334 47.0667 52.9001 48.3 52.1334C49.8 51.2334 51.8667 50.0001 55.5667 50.0001C59.2667 50.0001 61.3334 51.2334 62.8334 52.1334C64.0667 52.9001 64.8 53.3334 66.6667 53.3334V60ZM66.6667 45.0001C62.9667 45.0001 60.9 43.7668 59.4 42.8668C58.1667 42.1335 57.4 41.6668 55.5667 41.6668C53.7 41.6668 52.9667 42.1002 51.7334 42.8668C50.2334 43.7668 48.1667 45.0001 44.4667 45.0001C40.7667 45.0001 38.7 43.7668 37.2 42.8668C35.9667 42.1335 35.2 41.6668 33.3667 41.6668C31.5 41.6668 30.7667 42.1002 29.5333 42.8668C28.0333 43.7668 25.9667 45.0001 22.2667 45.0001C18.5667 45.0001 16.5 43.7668 15 42.8668C13.7667 42.1335 13 41.6668 11.1667 41.6668C9.33334 41.6668 8.56667 42.1002 7.33333 42.8668C5.76667 43.7668 3.7 45.0001 0 45.0001V38.3335C1.86667 38.3335 2.6 37.9002 3.83333 37.1335C5.33334 36.2335 7.4 35.0002 11.1 35.0002C14.8 35.0002 16.8667 36.2335 18.3667 37.1335C19.6 37.8669 20.3667 38.3335 22.2 38.3335C24.0667 38.3335 24.8 37.9002 26.0333 37.1335C27.5333 36.2335 29.6 35.0002 33.3 35.0002C37 35.0002 39.0667 36.2335 40.5667 37.1335C41.8 37.8669 42.5667 38.3335 44.4 38.3335C46.2333 38.3335 47 37.9002 48.2333 37.1335C49.7333 36.2335 51.8 35.0002 55.5 35.0002C59.2 35.0002 61.2667 36.2335 62.7667 37.1335C64 37.8669 64.7667 38.3335 66.6 38.3335V45.0001H66.6667ZM22.2333 30.0003C24.1 30.0003 24.8333 29.5669 26.0667 28.8003C27.6 27.9003 29.6667 26.667 33.3667 26.667C37.0667 26.667 39.1333 27.9003 40.6333 28.8003C41.8667 29.5336 42.6333 30.0003 44.4667 30.0003C46.3 30.0003 47.0667 29.5669 48.3 28.8003C48.7 28.5669 49.1667 28.3003 49.6667 28.0336L28.2667 6.66714C23.1 1.50052 18.3333 -0.0328036 10 0.000529448V8.33379C16.0667 8.30046 19.6333 9.63378 23.3333 13.3337L26.6667 16.667L15.8333 27.5003C16.8667 27.9003 17.7 28.4003 18.4 28.8003C19.6333 29.5669 20.3667 30.0003 22.2333 30.0003Z" fill="#1E4748"/>
<path d="M48.3333 16.6667C52.9357 16.6667 56.6667 12.9359 56.6667 8.33362C56.6667 3.73136 52.9357 0.000488281 48.3333 0.000488281C43.731 0.000488281 40 3.73136 40 8.33362C40 12.9359 43.731 16.6667 48.3333 16.6667Z" fill="#1E4748"/>
</svg>
