<svg width="26" height="40" viewBox="0 0 26 40" fill="none" xmlns="http://www.w3.org/2000/svg">
<path d="M1.42857 0C1.80745 0 2.17081 0.15051 2.43872 0.418419C2.70663 0.686328 2.85714 1.04969 2.85714 1.42857V10C2.85668 10.8866 3.13122 11.7516 3.64294 12.4757C4.15465 13.1998 4.87835 13.7473 5.71428 14.0429V1.42857C5.71428 1.04969 5.86479 0.686328 6.1327 0.418419C6.40061 0.15051 6.76397 0 7.14286 0C7.52174 0 7.8851 0.15051 8.15301 0.418419C8.42092 0.686328 8.57143 1.04969 8.57143 1.42857V14.0429C9.40736 13.7473 10.1311 13.1998 10.6428 12.4757C11.1545 11.7516 11.429 10.8866 11.4286 10V1.42857C11.4286 1.04969 11.5791 0.686328 11.847 0.418419C12.1149 0.15051 12.4783 0 12.8571 0C13.236 0 13.5994 0.15051 13.8673 0.418419C14.1352 0.686328 14.2857 1.04969 14.2857 1.42857V10C14.286 11.6466 13.7174 13.2428 12.6761 14.5184C11.6348 15.794 10.1848 16.6707 8.57143 17V38.5714C8.57143 38.9503 8.42092 39.3137 8.15301 39.5816C7.8851 39.8495 7.52174 40 7.14286 40C6.76397 40 6.40061 39.8495 6.1327 39.5816C5.86479 39.3137 5.71428 38.9503 5.71428 38.5714V17C4.10091 16.6707 2.65086 15.794 1.60956 14.5184C0.568262 13.2428 -0.000335929 11.6466 1.48898e-07 10V1.42857C1.48898e-07 1.04969 0.15051 0.686328 0.418419 0.418419C0.686328 0.15051 1.04969 0 1.42857 0ZM21.3686 4.22571C21.8229 3.76857 22.3343 3.41714 22.8571 3.18571V17.1429H20V7.14286C20 6.18 20.4971 5.09429 21.3686 4.22571ZM22.8571 20V38.5714C22.8571 38.9503 23.0076 39.3137 23.2756 39.5816C23.5435 39.8495 23.9068 40 24.2857 40C24.6646 40 25.028 39.8495 25.2959 39.5816C25.5638 39.3137 25.7143 38.9503 25.7143 38.5714V1.42857C25.7143 1.04969 25.5638 0.686328 25.2959 0.418419C25.028 0.15051 24.6646 0 24.2857 0C22.3914 0 20.62 0.931429 19.3457 2.20286C18.0743 3.47714 17.1429 5.24857 17.1429 7.14286V18.5714C17.1429 18.9503 17.2934 19.3137 17.5613 19.5816C17.8292 19.8495 18.1925 20 18.5714 20H22.8571Z" fill="#ECD259"/>
</svg>
