<svg width="65" height="60" viewBox="0 0 65 60" fill="none" xmlns="http://www.w3.org/2000/svg">
<path d="M29.1341 0.166834C29.4155 0.0536082 29.7164 -0.00304127 30.0196 0.000125826C30.3229 0.00329293 30.6225 0.0662142 30.9014 0.185291L53.5118 9.87543C53.8946 10.0397 54.2259 10.3045 54.4703 10.6418C54.7148 10.9792 54.8633 11.3764 54.9003 11.7913C54.9372 12.2063 54.861 12.6235 54.6799 12.9987C54.4988 13.3738 54.2195 13.693 53.8717 13.9222L53.8625 13.9315L53.8163 13.9638L53.604 14.1114C52.4146 14.9633 51.2917 15.9042 50.2448 16.9262C48.4267 18.7073 46.7979 20.8391 46.2303 22.9433C47.3378 26.1503 48.9113 29.8233 50.2586 32.7903C50.9922 34.4001 51.7475 35.9999 52.5243 37.5892L59.8934 42.019C61.3282 42.8794 62.5158 44.0966 63.3406 45.5521C64.1653 47.0076 64.5993 48.6519 64.6001 50.3249V57.6801C64.6003 58.2802 64.3668 58.8568 63.949 59.2876C63.5311 59.7183 62.9619 59.9693 62.3621 59.9873L62.2929 57.6801L62.3621 59.9873H62.2052C61.5624 60.0042 60.9192 60.0042 60.2764 59.9873C52.4892 59.8059 44.7515 58.6952 37.2277 56.6788C23.7999 53.0243 8.01885 45.2491 0.220592 28.6697C0.0715297 28.3538 -0.00384562 28.0081 0.000151024 27.6588C0.00414767 27.3095 0.087412 26.9657 0.243664 26.6532C2.64313 21.8589 7.4882 16.2109 12.7947 11.3566C18.0874 6.50696 24.1414 2.16023 29.1295 0.166834H29.1341ZM59.9857 55.3637V52.8858C30.7907 50.2972 14.5805 38.1937 6.62993 25.0197C5.97008 25.9565 5.38405 26.8655 4.89493 27.733C12.0241 41.8391 25.8764 48.8067 38.4413 52.226C45.4755 54.1098 52.7063 55.1629 59.9857 55.3637ZM57.5216 45.9735L51.1123 42.1298L47.0055 46.2365C51.1326 47.1583 55.3139 47.8179 59.5243 48.2115C59.0977 47.2806 58.3996 46.5004 57.5216 45.9735ZM42.1974 20.4608C43.291 17.6737 45.3074 15.3065 47.0101 13.6315C47.3931 13.2624 47.7669 12.9117 48.1268 12.5887L29.9878 4.8181C26.1902 6.52541 21.4835 9.81545 17.0215 13.7607L22.3972 19.1318C22.6113 19.3465 22.781 19.6012 22.8966 19.8815C23.0122 20.1618 23.0714 20.4621 23.0709 20.7653V35.9788C25.5765 37.7784 28.3958 39.4627 31.5613 40.9808L36.3971 34.5299L28.0728 22.0435C27.8241 21.6692 27.6902 21.2304 27.6874 20.781C27.6846 20.3316 27.8132 19.8911 28.0572 19.5138C28.3013 19.1364 28.6502 18.8385 29.0612 18.6567C29.4722 18.4749 29.9274 18.4171 30.3708 18.4904L42.1974 20.4608Z" fill="#1E4748"/>
</svg>
