<?xml version="1.0" standalone="no"?>
<!DOCTYPE svg PUBLIC "-//W3C//DTD SVG 20010904//EN"
 "http://www.w3.org/TR/2001/REC-SVG-20010904/DTD/svg10.dtd">
<svg version="1.0" xmlns="http://www.w3.org/2000/svg"
 width="512.000000pt" height="512.000000pt" viewBox="0 0 512.000000 512.000000"
 preserveAspectRatio="xMidYMid meet">
<metadata>
Created by potrace 1.14, written by Peter Selinger 2001-2017
</metadata>
<g transform="translate(0.000000,512.000000) scale(0.100000,-0.100000)"
fill="#000000" stroke="none">
<path d="M310 5102 c-150 -46 -252 -148 -292 -291 -17 -63 -18 -173 -18 -2261
l0 -2196 22 -59 c53 -148 146 -235 297 -279 48 -14 285 -16 2240 -15 2055 0
2190 1 2251 18 149 40 259 156 297 311 10 45 12 464 10 2260 l-2 2205 -24 55
c-46 104 -104 170 -191 216 -99 52 71 49 -2320 51 -2052 1 -2219 0 -2270 -15z"/>
</g>
</svg>
