<?xml version="1.0" standalone="no"?>
<!DOCTYPE svg PUBLIC "-//W3C//DTD SVG 20010904//EN"
 "http://www.w3.org/TR/2001/REC-SVG-20010904/DTD/svg10.dtd">
<svg version="1.0" xmlns="http://www.w3.org/2000/svg"
 width="620.000000pt" height="620.000000pt" viewBox="0 0 620.000000 620.000000"
 preserveAspectRatio="xMidYMid meet">
<metadata>
Created by potrace 1.14, written by Peter Selinger 2001-2017
</metadata>
<g transform="translate(0.000000,620.000000) scale(0.100000,-0.100000)"
fill="#cdbb19" stroke="none">
<path d="M2201 5448 c-89 -216 -171 -411 -181 -433 -9 -22 -28 -65 -40 -95
-12 -30 -28 -68 -35 -85 -7 -16 -115 -275 -240 -575 -125 -300 -233 -558 -240
-575 -7 -16 -109 -259 -225 -540 -117 -280 -218 -523 -225 -540 -8 -16 -25
-59 -40 -95 -14 -36 -30 -74 -35 -85 -5 -11 -27 -63 -49 -115 -301 -723 -546
-1311 -556 -1335 -8 -16 -35 -82 -61 -145 -25 -63 -54 -133 -64 -155 -33 -75
-60 -144 -60 -153 0 -8 66 -35 152 -62 26 -8 30 -4 95 98 343 540 734 845
1198 935 128 25 161 28 330 32 287 6 501 -46 775 -188 135 -70 273 -160 562
-365 139 -98 291 -204 338 -234 426 -272 774 -386 1180 -386 170 0 225 6 375
43 240 60 476 170 753 353 115 76 118 79 82 112 -3 3 -31 37 -61 76 l-55 71
-117 -77 c-325 -215 -634 -329 -888 -326 l-83 1 -81 181 c-44 99 -89 201 -99
225 -11 24 -35 78 -53 119 -34 77 -40 89 -66 150 -8 19 -32 71 -52 115 -20 44
-48 107 -62 140 -14 33 -34 80 -45 105 -12 25 -74 164 -138 310 -145 327 -157
355 -181 405 -10 22 -91 204 -179 405 -89 201 -169 383 -179 405 -22 48 -174
390 -304 685 -52 118 -104 235 -115 260 -21 45 -272 611 -497 1120 -64 146
-132 297 -149 335 -18 39 -52 116 -76 173 l-43 102 -52 0 -51 0 -163 -392z
m-133 -813 c11 -27 31 -75 45 -105 43 -95 168 -382 185 -425 8 -22 18 -44 22
-50 4 -5 26 -55 50 -110 23 -54 50 -119 61 -142 10 -24 28 -62 38 -86 11 -23
58 -133 106 -242 119 -275 253 -580 280 -640 13 -27 46 -104 75 -170 28 -66
60 -138 70 -160 10 -22 41 -94 70 -160 28 -66 83 -192 122 -280 38 -88 99
-227 135 -310 36 -82 75 -170 86 -195 10 -25 25 -58 32 -75 8 -16 41 -93 74
-169 34 -76 61 -143 61 -148 0 -5 -28 11 -62 36 -205 149 -436 291 -600 368
-172 82 -370 147 -503 164 -21 3 -42 7 -45 9 -41 26 -492 26 -640 0 -126 -21
-169 -30 -260 -55 -315 -86 -601 -255 -849 -501 -46 -46 -81 -79 -78 -73 5 10
148 351 289 693 115 279 160 386 174 415 8 16 14 33 14 37 0 5 11 32 24 61 14
29 57 132 96 228 40 96 78 189 86 205 7 17 52 125 100 240 118 286 552 1333
568 1370 7 17 42 99 77 182 35 84 66 149 70 145 4 -4 16 -29 27 -57z"/>
</g>
</svg>
