<svg width="60" height="60" viewBox="0 0 60 60" fill="none" xmlns="http://www.w3.org/2000/svg">
<path d="M57.75 12.0075V2.4C57.75 1.0725 56.6775 0 55.35 0H4.65004C3.32254 0 2.25004 1.0725 2.25004 2.4V12.0075C0.997546 12.0825 4.64695e-05 13.125 4.64695e-05 14.4V24.2775C-0.00475657 26.0928 0.362817 27.8899 1.08005 29.5575C1.40255 30.3225 1.80005 31.0425 2.25004 31.725V57.6C2.25004 58.92 3.32254 60 4.65004 60H55.35C56.6775 60 57.75 58.9275 57.75 57.6V31.725C58.2071 31.0408 58.5988 30.3151 58.92 29.5575C59.6325 27.885 60 26.1075 60 24.2775V14.4C60 13.125 59.0025 12.0825 57.75 12.0075ZM7.65004 5.4H52.35V12H7.65004V5.4ZM34.8 54.6075H25.2V46.8H34.8V54.6075ZM52.35 54.6075H39.6V44.4C39.6 43.0725 38.5275 42 37.2 42H22.8C21.4725 42 20.4 43.0725 20.4 44.4V54.6075H7.65004V36.4425C7.86754 36.5475 8.09254 36.6525 8.32504 36.7425C9.99754 37.4475 11.775 37.8 13.605 37.8C15.435 37.8 17.205 37.4475 18.885 36.7425C19.92 36.3075 20.895 35.7525 21.7875 35.085C21.8025 35.0775 21.8175 35.0775 21.8325 35.085C22.7278 35.7553 23.7027 36.3121 24.735 36.7425C26.4075 37.4475 28.185 37.8 30.015 37.8C31.845 37.8 33.615 37.4475 35.295 36.7425C36.33 36.3075 37.305 35.7525 38.1975 35.085C38.2125 35.0775 38.2275 35.0775 38.2425 35.085C39.1378 35.7553 40.1127 36.3121 41.145 36.7425C42.8175 37.4475 44.595 37.8 46.425 37.8C48.255 37.8 50.025 37.4475 51.705 36.7425C51.93 36.645 52.155 36.5475 52.38 36.4425V54.6075H52.35ZM54.6 24.2775C54.6 28.7625 50.925 32.4 46.4025 32.4C43.3425 32.4 40.6725 30.7425 39.2625 28.2825C39.045 27.9075 38.655 27.675 38.22 27.675H38.175C37.7475 27.675 37.35 27.9075 37.1325 28.2825C36.413 29.5374 35.374 30.5794 34.1212 31.3026C32.8685 32.0258 31.4466 32.4044 30 32.4C26.9475 32.4 24.285 30.75 22.875 28.2975C22.65 27.915 22.245 27.675 21.8025 27.675C21.36 27.675 20.9475 27.915 20.73 28.2975C20.0063 29.5476 18.966 30.5849 17.7139 31.3051C16.4618 32.0253 15.042 32.403 13.5975 32.4C9.07504 32.4 5.40004 28.7625 5.40004 24.2775V17.4375C5.40004 17.415 5.41504 17.4 5.43754 17.4H54.5625C54.585 17.4 54.6 17.415 54.6 17.4375V24.2775Z" fill="#1E4748"/>
</svg>
