<svg width="51" height="40" viewBox="0 0 51 40" fill="none" xmlns="http://www.w3.org/2000/svg">
<path d="M49.0909 0H1.81818C0.8125 0 0 0.8125 0 1.81818V38.1818C0 39.1875 0.8125 40 1.81818 40H49.0909C50.0966 40 50.9091 39.1875 50.9091 38.1818V1.81818C50.9091 0.8125 50.0966 0 49.0909 0ZM46.8182 6.29545V35.9091H4.09091V6.29545L2.52273 5.07386L4.75568 2.20455L7.1875 4.09659H43.7273L46.1591 2.20455L48.392 5.07386L46.8182 6.29545ZM43.7273 4.09091L25.4545 18.2955L7.18182 4.09091L4.75 2.19886L2.51705 5.06818L4.08523 6.28977L23.4943 21.3807C24.0525 21.8143 24.7392 22.0497 25.446 22.0497C26.1529 22.0497 26.8396 21.8143 27.3977 21.3807L46.8182 6.29545L48.3864 5.07386L46.1534 2.20455L43.7273 4.09091Z" fill="white"/>
</svg>
