<svg width="60" height="60" viewBox="0 0 60 60" fill="none" xmlns="http://www.w3.org/2000/svg">
<path fill-rule="evenodd" clip-rule="evenodd" d="M51.2135 51.2135C62.9288 39.4982 62.9288 20.5018 51.2135 8.78647C39.4982 -2.92882 20.5018 -2.92882 8.78647 8.78647C-2.92882 20.5018 -2.92882 39.4982 8.78647 51.2135C20.5018 62.9288 39.4982 62.9288 51.2135 51.2135ZM53.8296 27.1229C53.193 21.7874 50.777 16.8221 46.9714 13.0286C43.1639 9.20937 38.1766 6.79024 32.8201 6.1644L32.7901 6.33241C31.5722 12.9004 28.3918 18.9449 23.6683 23.6683C18.9449 28.3918 12.9004 31.5722 6.33241 32.7901L6.1644 32.8201C6.79024 38.1766 9.20937 43.1639 13.0286 46.9714C16.8221 50.777 21.7874 53.193 27.1229 53.8296L27.1589 53.6196C28.3762 47.051 31.5564 41.0059 36.2799 36.2819C41.0034 31.5579 47.0482 28.377 53.6166 27.1589L53.8266 27.1229H53.8296ZM53.6166 34.2871V33.2851C48.6585 34.4189 44.1208 36.928 40.5244 40.5244C36.928 44.1208 34.4189 48.6585 33.2851 53.6166H34.2871C39.0952 52.7505 43.5221 50.4312 46.9714 46.9714C50.4314 43.5223 52.7506 39.0952 53.6166 34.2871ZM6.33541 26.6669V25.9979C7.15898 21.0825 9.49928 16.5477 13.0286 13.0286C16.5474 9.49835 21.0822 7.15701 25.9979 6.33241H26.6639C25.5301 11.2905 23.021 15.8282 19.4246 19.4246C15.8282 23.021 11.2905 25.5301 6.33241 26.6639L6.33541 26.6669Z" fill="#1E4748"/>
</svg>
