<svg width="62" height="76" viewBox="0 0 62 76" fill="none" xmlns="http://www.w3.org/2000/svg">
<path d="M30.8739 20.3951C30.8739 20.3951 20.1114 21.4661 14.4764 16.7726C8.84146 12.0756 10.126 3.10517 10.126 3.10517C10.126 3.10517 20.8884 2.03417 26.5269 6.72766C32.1619 11.4246 30.8739 20.3951 30.8739 20.3951V20.3951Z" stroke="#204347" stroke-width="5" stroke-linecap="round" stroke-linejoin="round"/>
<path d="M31.126 20.3951C31.126 20.3951 41.8884 21.4661 47.5234 16.7726C53.1584 12.0756 51.8739 3.10517 51.8739 3.10517C51.8739 3.10517 41.1114 2.03417 35.4764 6.72766C29.8415 11.4246 31.126 20.3951 31.126 20.3951V20.3951Z" stroke="#204347" stroke-width="5" stroke-linecap="round" stroke-linejoin="round"/>
<path d="M3 34.5C3 33.5717 3.36875 32.6815 4.02512 32.0251C4.6815 31.3687 5.57174 31 6.49999 31H55.4999C56.4281 31 57.3184 31.3687 57.9747 32.0251C58.6311 32.6815 58.9999 33.5717 58.9999 34.5V41.5C58.9999 42.4282 58.6311 43.3185 57.9747 43.9748C57.3184 44.6312 56.4281 45 55.4999 45H6.49999C5.57174 45 4.6815 44.6312 4.02512 43.9748C3.36875 43.3185 3 42.4282 3 41.5V34.5Z" stroke="#204347" stroke-width="5" stroke-linecap="round" stroke-linejoin="round"/>
<path d="M6.5 45H55.4999L48.4999 72.9999H13.5L6.5 45Z" stroke="#204347" stroke-width="5" stroke-linecap="round" stroke-linejoin="round"/>
</svg>
